
        <svg xmlns="http://www.w3.org/2000/svg" xmlns:xlink="http://www.w3.org/1999/xlink" version="1.1" width="3162.0201430448105" 
        height="775.0828448382689" viewBox="0 0 3162.0201430448105 775.0828448382689">
			<rect fill="#030e1c" width="3162.0201430448105" height="775.0828448382689"/>
			<g transform="scale(8.101007152240548) translate(10, 10)">
				<defs id="SvgjsDefs7923"><linearGradient id="SvgjsLinearGradient7928"><stop id="SvgjsStop7929" stop-color="#147d6c" offset="0"></stop><stop id="SvgjsStop7930" stop-color="#1effff" offset="1"></stop></linearGradient><linearGradient id="SvgjsLinearGradient7931"><stop id="SvgjsStop7932" stop-color="#147d6c" offset="0"></stop><stop id="SvgjsStop7933" stop-color="#1effff" offset="1"></stop></linearGradient></defs><g id="SvgjsG7924" featureKey="symbolFeature-0" transform="matrix(0.840840840840841,0,0,0.840840840840841,-4.2042042042042045,-4.2042042042042045)" fill="url(#SvgjsLinearGradient7928)"><g xmlns="http://www.w3.org/2000/svg"><rect x="5" y="5" fill="none" width="90" height="90"></rect></g><path xmlns="http://www.w3.org/2000/svg" d="M83.123,61.333V38.628c3.818-0.287,6.838-3.479,6.838-7.368c0-4.078-3.317-7.396-7.396-7.396  c-2.514,0-4.734,1.263-6.072,3.185L56.658,15.597c0.468-0.97,0.738-2.052,0.738-3.2c0-4.078-3.318-7.396-7.397-7.396  c-4.078,0-7.396,3.318-7.396,7.396c0,1.147,0.27,2.23,0.739,3.2L23.507,27.049c-1.337-1.921-3.559-3.184-6.072-3.184  c-4.079,0-7.396,3.317-7.396,7.396c0,3.89,3.02,7.081,6.838,7.368v22.705c-3.818,0.287-6.838,3.479-6.838,7.368  c0,4.079,3.317,7.396,7.396,7.396c2.501,0,4.712-1.251,6.052-3.157l19.856,11.464c-0.469,0.971-0.739,2.054-0.739,3.201  c0,4.078,3.318,7.396,7.396,7.396c4.079,0,7.397-3.317,7.397-7.396c0-1.147-0.271-2.23-0.739-3.201l19.856-11.465  c1.339,1.907,3.55,3.158,6.052,3.158c4.078,0,7.396-3.317,7.396-7.396C89.961,64.812,86.941,61.62,83.123,61.333z M76.899,28.571  c0.16-0.338,0.35-0.66,0.565-0.961c1.142-1.589,2.999-2.63,5.101-2.63c3.463,0,6.28,2.817,6.28,6.28c0,3.275-2.52,5.969-5.723,6.253  c-0.185,0.016-0.369,0.028-0.558,0.028s-0.374-0.012-0.558-0.028c-1.894-0.168-3.545-1.178-4.581-2.653  c-0.213-0.303-0.397-0.627-0.556-0.967c-0.372-0.802-0.586-1.692-0.586-2.633C76.285,30.297,76.51,29.387,76.899,28.571z   M56.662,46.81l19.793-11.39c1.234,1.807,3.248,3.035,5.553,3.208v22.705c-2.336,0.176-4.372,1.436-5.602,3.282L56.64,53.24  c0.479-0.98,0.757-2.077,0.757-3.239C57.396,48.857,57.127,47.777,56.662,46.81z M75.932,28.012  c-0.483,0.982-0.762,2.082-0.762,3.249c0,1.144,0.268,2.223,0.734,3.19L56.11,45.841c-1.234-1.807-3.248-3.034-5.553-3.208V19.764  c2.302-0.173,4.312-1.397,5.547-3.2L75.932,28.012z M56.281,50.001c0,0.961-0.224,1.867-0.61,2.682  c-0.161,0.339-0.35,0.66-0.565,0.962c-1.039,1.45-2.675,2.441-4.548,2.608c-0.184,0.016-0.369,0.028-0.558,0.028c0,0,0,0-0.001,0  c-0.188,0-0.373-0.013-0.557-0.028c-1.874-0.166-3.51-1.158-4.548-2.607c-0.216-0.302-0.404-0.624-0.565-0.962  c-0.386-0.814-0.61-1.722-0.61-2.683c0-0.941,0.214-1.832,0.587-2.634c0.158-0.339,0.342-0.663,0.556-0.966  c1.037-1.475,2.688-2.485,4.581-2.652c0.184-0.016,0.369-0.028,0.557-0.028c0,0,0,0,0.001,0c0.188,0,0.374,0.012,0.558,0.028  c1.893,0.168,3.544,1.178,4.581,2.652c0.213,0.303,0.397,0.627,0.556,0.966C56.066,48.169,56.281,49.06,56.281,50.001z   M49.999,6.116c3.463,0,6.282,2.817,6.282,6.281c0,0.944-0.216,1.837-0.591,2.641c-0.157,0.339-0.344,0.663-0.558,0.966  c-1.036,1.47-2.686,2.477-4.575,2.645c-0.184,0.017-0.369,0.028-0.558,0.028c0,0,0,0-0.001,0c-0.188,0-0.373-0.012-0.557-0.028  c-1.89-0.167-3.539-1.173-4.576-2.644c-0.213-0.304-0.399-0.627-0.557-0.966c-0.375-0.804-0.59-1.697-0.59-2.641  C43.719,8.934,46.536,6.116,49.999,6.116z M43.896,16.564c1.234,1.803,3.246,3.027,5.547,3.2v22.869  c-2.305,0.173-4.319,1.401-5.553,3.208l-19.792-11.39c0.465-0.967,0.734-2.047,0.734-3.19c0-1.167-0.279-2.267-0.762-3.249  L43.896,16.564z M43.361,53.24L23.594,64.615c-1.229-1.848-3.266-3.106-5.601-3.282V38.628c2.305-0.173,4.319-1.401,5.553-3.208  l19.792,11.39c-0.466,0.968-0.734,2.047-0.734,3.19C42.604,51.164,42.881,52.261,43.361,53.24z M11.154,31.26  c0-3.463,2.818-6.28,6.281-6.28c2.101,0,3.96,1.041,5.101,2.629c0.216,0.301,0.405,0.623,0.566,0.961  c0.39,0.817,0.614,1.727,0.614,2.69c0,0.941-0.214,1.832-0.586,2.634c-0.157,0.339-0.342,0.663-0.556,0.967  c-1.036,1.475-2.688,2.484-4.581,2.652c-0.184,0.016-0.369,0.028-0.558,0.028s-0.374-0.012-0.558-0.028  C13.675,37.229,11.154,34.535,11.154,31.26z M23.087,71.421c-0.163,0.338-0.354,0.658-0.572,0.959  c-1.143,1.573-2.992,2.603-5.081,2.603c-3.463,0-6.281-2.817-6.281-6.281c0-3.274,2.521-5.97,5.723-6.253  c0.184-0.016,0.369-0.028,0.558-0.028s0.374,0.013,0.558,0.028c1.924,0.17,3.601,1.209,4.634,2.724  c0.209,0.306,0.389,0.634,0.542,0.976c0.349,0.781,0.548,1.645,0.548,2.554C23.716,69.676,23.486,70.597,23.087,71.421z   M24.055,71.979c0.492-0.988,0.776-2.1,0.776-3.278c0-1.111-0.253-2.164-0.695-3.11l19.786-11.387  c1.237,1.783,3.235,2.993,5.521,3.164v22.869c-2.301,0.172-4.312,1.396-5.546,3.199L24.055,71.979z M49.999,93.886  c-3.463,0-6.28-2.817-6.28-6.28c0-0.945,0.216-1.839,0.591-2.643c0.159-0.34,0.344-0.663,0.557-0.966  c1.037-1.472,2.686-2.478,4.576-2.645c0.184-0.016,0.369-0.028,0.557-0.028c0,0,0,0,0.001,0c0.188,0,0.374,0.013,0.558,0.028  c1.889,0.168,3.537,1.175,4.574,2.645c0.215,0.303,0.399,0.626,0.558,0.966c0.376,0.804,0.592,1.697,0.592,2.643  C56.281,91.068,53.462,93.886,49.999,93.886z M56.104,83.437c-1.234-1.802-3.246-3.025-5.546-3.199V57.368  c2.285-0.172,4.283-1.383,5.52-3.164l19.787,11.387c-0.44,0.946-0.694,1.999-0.694,3.11c0,1.179,0.284,2.288,0.775,3.278  L56.104,83.437z M82.565,74.982c-2.089,0-3.938-1.029-5.081-2.604c-0.218-0.3-0.408-0.62-0.572-0.957  c-0.397-0.824-0.627-1.745-0.627-2.72c0-0.909,0.198-1.771,0.548-2.554c0.152-0.342,0.332-0.669,0.541-0.975  c1.033-1.516,2.71-2.555,4.634-2.725c0.184-0.016,0.369-0.028,0.558-0.028s0.373,0.013,0.558,0.028  c3.203,0.283,5.723,2.979,5.723,6.253C88.846,72.165,86.028,74.982,82.565,74.982z"></path></g><g id="SvgjsG7925" featureKey="nameFeature-0" transform="matrix(1.6610615144829062,0,0,1.6610615144829062,95.00336324972143,-5.268311033422986)" fill="url(#SvgjsLinearGradient7931)"><path d="M6 32.8 l-2.4 7.2 l-3 0 l0 -1.2 l9.8 -26.8 l3.4 0 l9.8 26.8 l0 1.2 l-3 0 l-2.4 -7.2 l-12.2 0 z M17.2 30.2 l-5 -14.6 l-0.2 0 l-5 14.6 l10.2 0 z M40.75 14.600000000000001 l0 25.4 l-3 0 l0 -25.4 l-8.8 0 l0 -2.6 l20.6 0 l0 1.8 l-0.8 0.8 l-8 0 z M61.300000000000004 40 l-3 0 l0 -28 l12.4 0 c4.2 0 7 2.8 7 6.6 l0 3.8 c0 5.6 -5.4 6.4 -5.4 6.4 l6.2 10 l0 1.2 l-3 0 l-6.2 -11 l-8 0 l0 11 z M70.7 14.600000000000001 l-9.4 0 l0 11.8 l9.4 0 c2.2 0 4 -1.8 4 -4 l0 -3.8 c0 -2.2 -1.8 -4 -4 -4 z M91.85000000000001 40 l-3 0 l0 -28 l3 0 l0 28 z M103.40000000000002 33.8 l0 -15.6 c0 -3.8 2.8 -6.6 7 -6.6 l7 0 c4.2 0 7 2.8 7 6.6 l0 15.6 c0 3.8 -2.8 6.6 -7 6.6 l-7 0 c-4.2 0 -7 -2.8 -7 -6.6 z M121.40000000000002 33.8 l0 -15.6 c0 -2.2 -1.8 -4 -4 -4 l-7 0 c-2.2 0 -4 1.8 -4 4 l0 15.6 c0 2.2 1.8 4 4 4 l7 0 c2.2 0 4 -1.8 4 -4 z M151.55 36.2 l-3 0 l-8.2 -19.6 l-0.2 0 l-2.8 23.4 l-3 0 l0 -1.2 l3.6 -26.8 l3.6 0 l8.4 20.2 l0.2 0 l8.4 -20.2 l3.6 0 l3.6 26.8 l0 1.2 l-3 0 l-2.8 -23.4 l-0.2 0 z"></path></g>
			</g>
		</svg>
	