<?xml version="1.0" standalone="no"?>
<!DOCTYPE svg PUBLIC "-//W3C//DTD SVG 20010904//EN"
 "http://www.w3.org/TR/2001/REC-SVG-20010904/DTD/svg10.dtd">
<svg version="1.0" xmlns="http://www.w3.org/2000/svg"
 width="13175.000000pt" height="3230.000000pt" viewBox="0 0 13175.000000 3230.000000"
 preserveAspectRatio="xMidYMid meet">

<g transform="translate(0.000000,3230.000000) scale(0.100000,-0.100000)"
fill="#000000" stroke="none">
<path d="M16030 28924 c-936 -64 -1705 -707 -1926 -1609 -37 -150 -54 -308
-54 -488 0 -303 51 -556 166 -824 20 -46 34 -86 32 -88 -6 -7 -5602 -3237
-5613 -3241 -5 -2 -37 33 -70 78 -80 108 -258 287 -373 376 -643 494 -1480
581 -2207 228 -560 -272 -966 -773 -1120 -1385 -80 -319 -80 -683 0 -1002 154
-610 561 -1114 1120 -1384 214 -104 438 -172 652 -197 l103 -12 0 -3222 0
-3221 -74 -6 c-194 -17 -474 -99 -683 -202 -586 -286 -1009 -832 -1137 -1465
-44 -222 -53 -511 -22 -715 94 -609 419 -1119 926 -1457 241 -161 525 -271
835 -324 144 -25 490 -25 639 -1 532 89 992 359 1325 776 41 50 76 91 78 91 3
0 1270 -730 2815 -1622 2088 -1206 2808 -1627 2804 -1638 -2 -8 -23 -60 -46
-115 -95 -230 -141 -449 -147 -716 -8 -288 19 -476 103 -728 236 -709 844
-1248 1574 -1395 221 -44 512 -53 714 -22 456 71 865 275 1181 591 319 318
517 700 596 1151 27 156 32 460 10 614 -26 183 -91 412 -162 569 -16 35 -28
65 -27 66 27 20 5623 3245 5628 3243 4 -2 43 -48 87 -103 351 -437 857 -712
1428 -775 453 -50 971 78 1358 337 345 231 614 550 774 920 211 489 229 1047
48 1548 -158 440 -474 825 -888 1081 -232 144 -542 253 -817 287 l-105 13 -3
3222 -2 3222 34 0 c108 0 410 72 576 137 597 235 1069 753 1246 1367 64 223
78 322 78 586 0 197 -4 254 -22 350 -61 330 -183 619 -378 891 -71 100 -269
307 -373 391 -768 621 -1859 624 -2631 8 -103 -82 -264 -246 -350 -355 -34
-44 -63 -81 -65 -83 -1 -2 -5606 3230 -5623 3243 -1 1 11 31 27 66 210 464
235 1002 72 1499 -226 683 -778 1200 -1474 1380 -187 48 -464 76 -637 64z
m486 -357 c341 -77 620 -227 868 -466 822 -797 691 -2137 -271 -2769 -588
-386 -1374 -380 -1954 14 -426 289 -700 725 -775 1236 -24 165 -15 439 20 604
141 669 647 1196 1308 1365 162 41 242 48 473 44 189 -3 236 -7 331 -28z
m-1891 -3186 c332 -348 760 -568 1237 -636 57 -8 109 -15 116 -15 9 0 12 -656
12 -3245 l0 -3245 -34 0 c-57 0 -265 -38 -380 -70 -422 -118 -818 -385 -1087
-733 -39 -51 -74 -93 -79 -95 -6 -2 -5594 3209 -5607 3222 -2 2 10 34 28 72
87 194 150 450 169 684 27 327 -38 694 -178 1003 -22 48 -27 69 -19 74 7 4
1271 735 2811 1624 l2799 1617 60 -81 c34 -44 102 -123 152 -176z m6180 -1431
c1480 -854 2692 -1554 2694 -1556 2 -2 -15 -45 -37 -97 -226 -528 -230 -1090
-10 -1630 22 -55 36 -102 32 -107 -16 -14 -5579 -3213 -5594 -3216 -9 -2 -37
26 -70 73 -168 232 -452 468 -730 608 -206 103 -463 182 -674 206 l-106 13 0
3242 0 3243 48 6 c282 36 472 91 700 200 296 143 558 355 750 607 l74 96 116
-67 c65 -38 1328 -767 2807 -1621z m-13595 -725 c340 -60 668 -229 921 -472
279 -270 442 -567 526 -963 14 -68 18 -131 18 -320 0 -189 -4 -252 -18 -320
-30 -139 -64 -250 -111 -364 -278 -662 -927 -1096 -1641 -1096 -514 0 -1028
237 -1353 625 -306 365 -457 822 -422 1283 65 855 716 1535 1570 1641 108 14
398 5 510 -14z m18404 10 c822 -108 1455 -754 1545 -1577 83 -750 -331 -1480
-1019 -1801 -838 -391 -1835 -72 -2296 734 -217 382 -285 825 -192 1258 59
278 208 572 401 792 390 446 980 670 1561 594z m-14171 -4562 c1535 -883 2795
-1609 2799 -1612 4 -4 -12 -56 -37 -116 -53 -131 -106 -314 -130 -445 -23
-124 -31 -444 -16 -582 23 -198 89 -441 170 -620 16 -37 27 -69 23 -72 -132
-77 -5578 -3209 -5586 -3212 -7 -3 -46 39 -86 92 -256 336 -604 587 -1003 723
-132 45 -323 88 -433 98 l-74 6 0 3222 0 3221 107 13 c270 31 586 144 830 294
206 128 441 341 568 515 33 45 63 82 68 82 4 0 1264 -723 2800 -1607z m12273
1530 c72 -97 255 -286 354 -366 108 -87 264 -187 393 -250 204 -101 489 -184
695 -203 l72 -7 -2 -3221 -3 -3220 -105 -13 c-203 -25 -436 -94 -627 -183
-288 -135 -586 -377 -773 -628 -41 -56 -78 -101 -82 -102 -9 0 -5569 3199
-5586 3215 -10 9 -6 27 22 92 237 554 231 1139 -17 1703 l-15 35 2801 1613
c1541 886 2804 1612 2808 1612 4 0 33 -35 65 -77z m-7248 -2303 c977 -179
1623 -1138 1422 -2110 -109 -523 -453 -974 -931 -1220 -432 -222 -906 -259
-1374 -109 -122 39 -349 155 -465 236 -123 87 -336 301 -422 423 -216 305
-328 659 -328 1030 0 298 62 549 201 820 87 167 176 287 324 435 156 156 272
240 460 335 194 97 380 153 595 180 118 14 388 4 518 -20z m-2014 -2990 c39
-60 141 -176 225 -259 251 -246 561 -425 898 -520 113 -32 321 -71 379 -71
l34 0 0 -3245 c0 -2589 -3 -3245 -12 -3245 -38 -1 -231 -33 -311 -51 -466
-109 -907 -396 -1193 -776 l-61 -80 -2804 1619 c-1542 891 -2807 1622 -2811
1626 -4 4 10 48 31 97 228 532 234 1119 17 1634 -20 47 -35 86 -33 87 11 9
5603 3224 5608 3224 3 0 18 -18 33 -40z m6218 -1567 c1536 -883 2797 -1610
2802 -1614 5 -4 -7 -47 -27 -96 -215 -538 -209 -1109 18 -1625 l42 -96 -2706
-1563 c-1488 -860 -2754 -1591 -2813 -1625 l-106 -62 -73 95 c-87 114 -235
266 -344 353 -320 254 -677 401 -1107 455 l-48 6 0 3243 0 3242 104 12 c532
62 1067 369 1397 803 33 43 62 79 64 79 3 0 1262 -723 2797 -1607z m-13416
-757 c705 -148 1241 -682 1395 -1393 16 -75 22 -147 26 -303 5 -181 3 -220
-17 -335 -121 -719 -675 -1301 -1380 -1453 -332 -72 -694 -46 -1000 73 -440
169 -787 489 -985 908 -266 561 -217 1227 129 1744 240 361 608 625 1021 733
96 25 140 33 290 54 17 3 113 3 215 1 149 -3 209 -9 306 -29z m18490 0 c280
-59 551 -188 769 -366 102 -83 250 -242 328 -350 127 -179 243 -442 287 -652
169 -809 -229 -1623 -965 -1978 -798 -385 -1755 -126 -2250 610 -308 459 -387
1028 -215 1552 43 130 157 355 238 468 77 108 225 267 327 350 210 172 485
305 742 360 161 34 218 39 423 35 161 -3 216 -8 316 -29z m-9331 -5352 c590
-84 1113 -485 1360 -1043 208 -468 202 -1006 -14 -1466 -210 -445 -591 -785
-1056 -940 -203 -67 -292 -80 -560 -80 -211 1 -253 3 -345 23 -716 155 -1246
683 -1397 1391 -25 115 -27 145 -28 351 0 197 3 239 23 339 114 560 474 1027
982 1270 331 158 665 208 1035 155z"/>
<path d="M97060 24193 c-626 -36 -1216 -190 -1724 -451 -214 -110 -339 -188
-519 -323 -565 -424 -967 -979 -1195 -1650 -118 -346 -180 -674 -202 -1064
-13 -244 -13 -8914 0 -9160 45 -814 287 -1486 756 -2095 113 -147 425 -459
574 -574 579 -447 1200 -691 2040 -803 126 -16 293 -18 2420 -21 1622 -2 2327
0 2430 8 404 31 765 104 1122 226 1398 478 2308 1660 2418 3144 8 115 10 1361
8 4795 l-4 4640 -21 150 c-41 280 -95 512 -170 735 -447 1327 -1592 2218
-3095 2409 -310 40 -397 41 -2621 39 -1189 -1 -2187 -3 -2217 -5z m4520 -1476
c58 -9 161 -31 230 -48 657 -164 1229 -644 1501 -1262 115 -261 169 -481 189
-775 8 -110 10 -1506 8 -4622 -3 -4171 -5 -4472 -21 -4570 -58 -352 -172 -650
-355 -925 -345 -519 -857 -854 -1492 -977 l-115 -22 -2160 -3 c-1928 -3 -2174
-2 -2293 12 -576 69 -1117 372 -1482 831 -138 172 -267 398 -345 604 -44 116
-98 318 -122 460 -17 99 -18 344 -21 4620 -2 3205 0 4553 8 4645 44 521 276
1021 648 1393 371 370 878 609 1387 651 55 5 1052 8 2215 7 1939 -2 2124 -3
2220 -19z"/>
<path d="M41271 23961 c-6 -10 -1243 -3391 -2751 -7514 l-2740 -7495 0 -341 0
-341 842 2 841 3 672 2015 672 2015 3419 3 3419 2 673 -2020 674 -2020 844 0
844 0 0 333 0 332 -2749 7520 -2750 7520 -950 3 c-919 2 -951 1 -960 -17z
m2412 -6100 c769 -2246 1396 -4085 1394 -4087 -2 -2 -1287 -3 -2854 -2 l-2851
3 1354 3955 c744 2175 1375 4015 1400 4088 l47 133 56 -3 56 -3 1398 -4084z"/>
<path d="M51675 23968 c-3 -7 -4 -337 -3 -733 l3 -720 2468 -3 2467 -2 0
-7120 0 -7120 840 0 840 0 0 7120 0 7120 2243 0 2242 0 228 228 227 227 -2
505 -3 505 -5773 3 c-4613 2 -5774 0 -5777 -10z"/>
<path d="M68130 16125 l0 -7855 840 0 840 0 0 3085 0 3085 2243 0 2242 0 1739
-3085 1738 -3085 844 0 844 0 0 336 0 336 -1736 2800 c-954 1540 -1733 2802
-1731 2805 3 2 62 17 133 34 441 101 903 292 1280 530 848 534 1378 1324 1543
2299 57 334 56 302 56 1775 0 1454 0 1453 -51 1758 -226 1345 -1106 2369
-2409 2802 -407 136 -775 202 -1242 225 -118 6 -1606 10 -3685 10 l-3488 0 0
-7855z m7335 6357 c474 -93 869 -300 1194 -623 309 -307 526 -705 615 -1125
46 -221 48 -260 44 -1599 -4 -1247 -4 -1261 -26 -1375 -121 -632 -469 -1155
-1001 -1501 -253 -165 -527 -272 -856 -332 l-120 -22 -2752 -3 -2753 -2 0
3305 0 3305 2773 -3 2772 -3 110 -22z"/>
<path d="M85260 16125 l0 -7855 840 0 840 0 0 7855 0 7855 -840 0 -840 0 0
-7855z"/>
<path d="M112785 23968 c-2 -7 -456 -3388 -1009 -7513 l-1007 -7500 1 -343 0
-342 842 2 842 3 762 6370 c419 3504 772 6454 785 6558 l22 187 56 0 56 -1
2296 -5492 2297 -5492 843 -2 844 -3 2297 5493 2297 5492 55 3 55 3 5 -33 c4
-18 355 -2953 782 -6523 426 -3569 778 -6507 781 -6528 l6 -37 843 0 844 0 0
325 0 324 -1010 7523 c-556 4137 -1014 7526 -1018 7530 -5 5 -460 7 -1012 6
l-1004 -3 -2033 -4890 c-1118 -2689 -2177 -5238 -2354 -5662 l-321 -773 -57 0
-56 0 -2349 5653 c-1292 3108 -2353 5658 -2359 5665 -7 9 -222 12 -1014 12
-794 0 -1004 -3 -1008 -12z"/>
</g>
</svg>
